<?xml version="1.0" standalone="no"?><!DOCTYPE svg PUBLIC "-//W3C//DTD SVG 1.1//EN" "http://www.w3.org/Graphics/SVG/1.1/DTD/svg11.dtd"><svg t="1577415306063" class="icon" viewBox="0 0 1024 1024" version="1.1" xmlns="http://www.w3.org/2000/svg" p-id="4218" width="300" height="300" xmlns:xlink="http://www.w3.org/1999/xlink"><defs><style type="text/css"></style></defs><path d="M854.14912 137.01632H159.61088c-36.8896 0-66.78016 29.89568-66.78016 66.78016v694.53824c0 36.8896 29.89568 66.78528 66.78016 66.78528h694.53824c36.88448 0 66.78016-29.89568 66.78016-66.78528V203.79648c0-36.88448-29.89568-66.78016-66.78016-66.78016z" fill="#71C171" p-id="4219"></path><path d="M747.29984 844.90752H266.46528c-29.50656 0-53.4272-23.92064-53.4272-53.4272v26.71616c0 29.50656 23.92064 53.4272 53.4272 53.4272H747.29472c29.50144 0 53.4272-23.92064 53.4272-53.4272v-26.71616c0.00512 29.51168-23.92064 53.4272-53.42208 53.4272z" fill="" p-id="4220"></path><path d="M747.29984 190.44352H266.46528c-29.50656 0-53.4272 23.92064-53.4272 53.4272v547.61472c0 29.50656 23.92064 53.4272 53.4272 53.4272H747.29472c29.50144 0 53.4272-23.92064 53.4272-53.4272V243.8656c0.00512-29.50144-23.92064-53.42208-53.42208-53.42208z" fill="#FFFFFF" p-id="4221"></path><path d="M693.86752 96.9472h-120.8832c-3.3536-30.01344-28.51328-53.4272-59.42784-53.4272s-56.07424 23.41376-59.42272 53.4272H319.89248a26.71616 26.71616 0 0 0-26.71616 26.71616v80.13312a26.71616 26.71616 0 0 0 26.71616 26.71616h373.98016a26.71616 26.71616 0 0 0 26.71616-26.71616V123.66336a26.7264 26.7264 0 0 0-26.72128-26.71616z m-180.31104 40.06912a33.3824 33.3824 0 0 1-33.38752-33.38752 33.38752 33.38752 0 1 1 33.38752 33.38752z" fill="#CACACA" p-id="4222"></path><path d="M693.86752 203.79648H319.89248a26.71616 26.71616 0 0 1-26.71616-26.71104v26.71104a26.71616 26.71616 0 0 0 26.71616 26.71616h373.98016a26.71616 26.71616 0 0 0 26.71616-26.71616v-26.71104a26.7264 26.7264 0 0 1-26.72128 26.71104z" fill="#B3B3B3" p-id="4223"></path><path d="M370.36544 329.03168l-6.43072-3.22048s-5.15072-4.1472-8.75008 0.45568L323.8656 368.64c-1.83808 2.7648-4.29056 0.49664-4.29056 0.49664l-13.7984-11.30496s-4.1216-2.29888-6.69184 2.7648l-5.69856 7.36768s-1.60256 3.16928 3.02592 5.46816l18.72896 14.67392s3.14368 2.7392 6.66624 2.7392c2.7136-0.0256 5.69856-0.04096 5.69856-0.04096s6.2976-0.23552 9.26208-5.5808l35.52768-51.01056c0-0.00512 3.2256-2.88768-1.93024-5.18144z" fill="#71C171" p-id="4224"></path><path d="M293.17632 524.35456h80.13824V444.21632H293.17632v80.13824z m133.56544-26.71104h293.84704v-26.71104H426.74176v26.71104z m-133.56544 146.92352h80.13824V564.4288H293.17632v80.13824z m133.56544-26.71616h293.84704v-26.71616H426.74176v26.71616z m-133.56544 146.9184h80.13824v-80.13312H293.17632v80.13312z m133.56544-26.71104h293.84704v-26.71616H426.74176v26.71616z m0-387.33824v26.71104h293.84704V350.72H426.74176z" fill="#D5D5D5" p-id="4225"></path></svg>